<svg width="251" height="55" viewBox="0 0 251 55" fill="none" xmlns="http://www.w3.org/2000/svg">
<g clip-path="url(#clip0_42_249)">
<path d="M39.3488 32.9917C37.2891 32.9759 35.1313 33.4904 33.0842 34.5835L32.6555 33.5728H25.5988V27.7524H30.1877L25.1808 15.9468L20.0392 27.7524H24.6008V33.5728H17.5041L17.2277 34.2056C15.0817 33.22 12.8441 32.8493 10.7482 33.0386L18.3058 15.9458H31.9396L39.3488 32.9917ZM31.5783 15.1138H18.674L25.1808 0.397949L31.5783 15.1138Z" fill="#2979FF"/>
<g clip-path="url(#clip1_42_249)">
<path d="M0.984253 44.1037C0.984253 33.4355 16.1739 30.7685 23.6443 41.0199L21.3202 42.9368C11.7747 32.9355 4.2214 38.9363 4.2214 44.1036C4.2214 49.5044 9.22929 51.3824 11.7747 51.1879C20.2411 51.1879 28.1265 34.6023 38.917 34.6023C46.7525 34.6023 48.9328 41.1588 49.0434 44.437C49.0434 50.1045 43.698 54.355 38.917 54.1884C34.136 54.0217 28.7352 50.0767 26.6324 48.0208L28.7905 45.8539C30.3676 47.3541 34.2688 51.1879 38.917 51.1879C48.3794 51.1879 48.3794 37.5194 38.917 37.5194C29.4545 37.5194 22.3992 54.1884 11.7747 54.1884C2.97634 54.1884 0.984253 47.1596 0.984253 44.1037Z" fill="#0047BE"/>
<path d="M11.7754 54.189C2.97695 54.189 0.984863 47.1603 0.984863 44.1043C2.39837 50.7016 8.80072 51.1886 11.7754 51.1886C20.2417 51.1886 28.1271 34.603 38.9176 34.603C46.7531 34.603 48.9334 41.1595 49.044 44.4377C47.3811 39.3935 43.5563 37.5201 38.9176 37.5201C29.4552 37.5201 22.3998 54.189 11.7754 54.189Z" fill="#2979FF"/>
<path d="M0.984863 44.0206C0.984863 33.3525 16.1746 30.6855 23.6449 40.9369L21.3208 42.8538C12.3761 32.5749 2.28037 39.1436 0.984863 44.0206Z" fill="#5F9BFF"/>
<path d="M38.9176 51.1049C42.7248 51.1049 47.4642 49.8696 49.044 44.354C49.044 50.0215 43.6986 54.272 38.9176 54.1054C34.1366 53.9387 28.7358 49.9937 26.633 47.9378L28.7911 45.7709C30.3682 47.2711 34.2694 51.1049 38.9176 51.1049Z" fill="#5F9BFF"/>
</g>
</g>
<g clip-path="url(#clip2_42_249)">
<path d="M59.3591 28.1021L66.7464 6.52862H73.6107L80.9979 28.1021H75.8987L70.44 10.2549H69.9497L64.4583 28.1021H59.3591ZM63.5104 23.8527V20.6494H77.5331V23.8527H63.5104ZM83.3266 28.1021V6.52862H88.1316V28.1021H83.3266ZM92.2491 28.1021V6.52862H101.009C102.186 6.52862 103.254 6.62668 104.213 6.82281C105.171 6.99714 106.021 7.25863 106.762 7.60729C107.503 7.95596 108.124 8.39178 108.625 8.91477C109.148 9.41598 109.541 10.0043 109.802 10.6799C110.064 11.3336 110.194 12.0636 110.194 12.8699C110.194 13.6326 110.074 14.3299 109.835 14.9619C109.595 15.572 109.235 16.1059 108.756 16.5635C108.277 17.0212 107.677 17.4025 106.958 17.7076C106.239 17.9909 105.4 18.187 104.441 18.2959V18.7863C105.553 18.8952 106.435 19.1567 107.089 19.5707C107.765 19.963 108.288 20.4969 108.658 21.1724C109.05 21.8479 109.388 22.6869 109.671 23.6893L110.979 28.1021H105.782L104.768 24.0162C104.572 23.1445 104.289 22.469 103.918 21.9896C103.548 21.4884 103.079 21.1397 102.513 20.9436C101.946 20.7257 101.26 20.6167 100.454 20.6167H96.9561V28.1021H92.2491ZM96.9561 17.0865H100.682C102.164 17.0865 103.308 16.8032 104.115 16.2367C104.921 15.6701 105.324 14.7875 105.324 13.589C105.324 12.4123 104.943 11.5515 104.18 11.0067C103.439 10.4402 102.317 10.1569 100.813 10.1569H96.9561V17.0865ZM112.078 28.1021L119.466 6.52862H126.33L133.717 28.1021H128.618L123.159 10.2549H122.669L117.178 28.1021H112.078ZM116.23 23.8527V20.6494H130.252V23.8527H116.23ZM142.926 28.1021V6.52862H151.686C152.862 6.52862 153.93 6.62668 154.889 6.82281C155.848 6.99714 156.698 7.25863 157.439 7.60729C158.179 7.95596 158.8 8.39178 159.302 8.91477C159.825 9.41598 160.217 10.0043 160.478 10.6799C160.74 11.3336 160.871 12.0636 160.871 12.8699C160.871 13.6326 160.751 14.3299 160.511 14.9619C160.271 15.572 159.912 16.1059 159.432 16.5635C158.953 17.0212 158.354 17.4025 157.635 17.7076C156.916 17.9909 156.077 18.187 155.118 18.2959V18.7863C156.229 18.8952 157.112 19.1567 157.765 19.5707C158.441 19.963 158.964 20.4969 159.334 21.1724C159.727 21.8479 160.064 22.6869 160.348 23.6893L161.655 28.1021H156.458L155.445 24.0162C155.249 23.1445 154.965 22.469 154.595 21.9896C154.224 21.4884 153.756 21.1397 153.189 20.9436C152.623 20.7257 151.936 20.6167 151.13 20.6167H147.632V28.1021H142.926ZM147.632 17.0865H151.359C152.841 17.0865 153.985 16.8032 154.791 16.2367C155.597 15.6701 156 14.7875 156 13.589C156 12.4123 155.619 11.5515 154.856 11.0067C154.115 10.4402 152.993 10.1569 151.49 10.1569H147.632V17.0865ZM164.457 28.1021V6.52862H169.196V28.1021H164.457ZM167.726 28.1021V24.2777H181.094V28.1021H167.726ZM167.726 18.9497V15.4522H179.46V18.9497H167.726ZM167.726 10.3203V6.52862H181.029V10.3203H167.726ZM182.435 28.1021L189.822 6.52862H196.686L204.073 28.1021H198.974L193.516 10.2549H193.025L187.534 28.1021H182.435ZM186.586 23.8527V20.6494H200.609V23.8527H186.586ZM206.402 28.1021V6.52862H211.109V28.1021H206.402ZM207.383 28.1021V24.1469H220.229V28.1021H207.383ZM222.347 28.1021V6.52862H229.44L235.455 22.7741H235.618L241.502 6.52862H248.268V28.1021H243.79L244.084 11.3009H243.725L237.187 28.1021H233.265L226.825 11.3009H226.466L226.76 28.1021H222.347Z" fill="#2979FF"/>
<path d="M59.3137 47.145L63.5124 35.2004H65.9375L70.1362 47.145H68.3445L64.8336 36.5939H64.6164L61.1054 47.145H59.3137ZM61.3045 44.4665V43.1997H68.3445V44.4665H61.3045ZM71.8596 47.145V35.2004H73.5427V47.145H71.8596ZM80.5028 47.145V35.2004H84.6653C85.2686 35.2004 85.8176 35.2487 86.3122 35.3452C86.819 35.4417 87.2654 35.5865 87.6515 35.7795C88.0496 35.9726 88.3814 36.2079 88.6469 36.4854C88.9244 36.7629 89.1295 37.0886 89.2622 37.4626C89.407 37.8246 89.4794 38.2288 89.4794 38.6752C89.4794 39.0975 89.413 39.4836 89.2803 39.8335C89.1596 40.1834 88.9726 40.491 88.7192 40.7565C88.4659 41.0219 88.1522 41.2391 87.7782 41.408C87.4041 41.5648 86.9698 41.6734 86.4751 41.7337V41.969C86.9095 42.0173 87.2895 42.1319 87.6153 42.3129C87.941 42.4939 88.2185 42.7593 88.4478 43.1092C88.677 43.447 88.8761 43.8995 89.045 44.4665L89.8051 47.145H88.0134L87.3981 44.7018C87.2895 44.2071 87.1025 43.809 86.8371 43.5073C86.5837 43.2057 86.264 42.9825 85.8779 42.8377C85.4918 42.6929 85.0393 42.6205 84.5205 42.6205H82.1678V47.145H80.5028ZM82.1678 41.2632H84.5205C85.5943 41.2632 86.4027 41.0702 86.9457 40.6841C87.5007 40.298 87.7782 39.7068 87.7782 38.9105C87.7782 38.1142 87.5127 37.529 86.9819 37.155C86.463 36.7689 85.6547 36.5758 84.5567 36.5758H82.1678V41.2632ZM95.7496 47.3803C95.0136 47.3803 94.3621 47.2717 93.795 47.0545C93.24 46.8253 92.7695 46.4995 92.3834 46.0772C91.9973 45.655 91.7077 45.1542 91.5147 44.5751C91.3216 43.996 91.2251 43.3445 91.2251 42.6205C91.2251 41.8846 91.3216 41.2089 91.5147 40.5936C91.7077 39.9782 91.9912 39.4413 92.3653 38.9829C92.7393 38.5244 93.1978 38.1745 93.7407 37.9332C94.2836 37.6798 94.905 37.5531 95.6048 37.5531C96.2201 37.5531 96.7812 37.6557 97.2879 37.8608C97.7946 38.0659 98.223 38.3856 98.5729 38.82C98.9348 39.2423 99.2063 39.7792 99.3873 40.4307C99.5682 41.0702 99.6406 41.8242 99.6044 42.6929L92.2567 42.7472V41.6252L98.609 41.5709L98.048 42.331C98.1083 41.5709 98.0359 40.9435 97.8308 40.4488C97.6257 39.9541 97.3301 39.5801 96.944 39.3267C96.57 39.0734 96.1236 38.9467 95.6048 38.9467C95.0498 38.9467 94.5611 39.0915 94.1389 39.381C93.7166 39.6706 93.3908 40.0868 93.1616 40.6298C92.9444 41.1727 92.8358 41.8303 92.8358 42.6024C92.8358 43.7125 93.0832 44.5631 93.5778 45.1542C94.0725 45.7334 94.8085 46.0229 95.7858 46.0229C96.1598 46.0229 96.4856 45.9807 96.7631 45.8963C97.0526 45.7997 97.2939 45.6731 97.487 45.5162C97.6921 45.3473 97.855 45.1542 97.9756 44.9371C98.1083 44.7199 98.2109 44.4846 98.2833 44.2313L99.7311 44.5751C99.6225 45.0095 99.4536 45.4016 99.2244 45.7515C99.0072 46.0893 98.7297 46.3789 98.3919 46.6202C98.0661 46.8615 97.6861 47.0485 97.2517 47.1812C96.8174 47.3139 96.3166 47.3803 95.7496 47.3803ZM105.201 47.3803C104.55 47.3803 103.971 47.3079 103.464 47.1631C102.957 47.0304 102.535 46.8374 102.197 46.584C101.859 46.3185 101.6 46.0049 101.419 45.6429C101.238 45.2809 101.142 44.8828 101.129 44.4484L102.523 44.0865C102.499 44.4846 102.595 44.8345 102.813 45.1362C103.042 45.4257 103.362 45.6489 103.772 45.8058C104.194 45.9626 104.701 46.041 105.292 46.041C106.004 46.041 106.553 45.9204 106.939 45.6791C107.337 45.4378 107.536 45.106 107.536 44.6837C107.536 44.3459 107.428 44.0865 107.21 43.9055C106.993 43.7125 106.692 43.5616 106.305 43.453C105.931 43.3324 105.485 43.2238 104.966 43.1273C104.532 43.0308 104.098 42.9222 103.663 42.8015C103.229 42.6809 102.831 42.524 102.469 42.331C102.119 42.1259 101.835 41.8604 101.618 41.5347C101.401 41.2089 101.292 40.8047 101.292 40.3221C101.292 39.755 101.443 39.2664 101.745 38.8562C102.046 38.446 102.475 38.1262 103.03 37.897C103.585 37.6677 104.248 37.5531 105.021 37.5531C105.793 37.5531 106.45 37.6738 106.993 37.9151C107.536 38.1443 107.964 38.4701 108.278 38.8924C108.592 39.3147 108.767 39.8093 108.803 40.3764L107.373 40.7384C107.361 40.3402 107.253 40.0024 107.047 39.7249C106.854 39.4474 106.577 39.2423 106.215 39.1095C105.853 38.9648 105.431 38.8924 104.948 38.8924C104.309 38.8924 103.802 39.013 103.428 39.2543C103.054 39.4956 102.867 39.8274 102.867 40.2497C102.867 40.5634 102.975 40.8168 103.193 41.0098C103.422 41.2029 103.73 41.3537 104.116 41.4623C104.502 41.5709 104.93 41.6795 105.401 41.788C105.883 41.8846 106.342 41.9931 106.776 42.1138C107.222 42.2345 107.621 42.3913 107.97 42.5843C108.32 42.7774 108.598 43.0368 108.803 43.3626C109.008 43.6763 109.111 44.0804 109.111 44.5751C109.111 45.1904 108.948 45.7093 108.622 46.1315C108.296 46.5418 107.838 46.8555 107.247 47.0726C106.667 47.2777 105.986 47.3803 105.201 47.3803ZM115.032 47.3803C114.14 47.3803 113.349 47.1872 112.662 46.8012C111.986 46.403 111.455 45.8359 111.069 45.1C110.695 44.364 110.508 43.4711 110.508 42.4215C110.508 41.3356 110.707 40.4367 111.105 39.7249C111.515 39.001 112.058 38.458 112.734 38.0961C113.41 37.7341 114.164 37.5531 114.996 37.5531C115.865 37.5531 116.637 37.7462 117.313 38.1323C118 38.5063 118.543 39.0613 118.941 39.7973C119.34 40.5212 119.539 41.42 119.539 42.4939C119.539 43.5677 119.34 44.4665 118.941 45.1904C118.555 45.9144 118.018 46.4633 117.331 46.8374C116.655 47.1993 115.889 47.3803 115.032 47.3803ZM115.105 46.0229C115.684 46.0229 116.179 45.8842 116.589 45.6067C117.011 45.3171 117.331 44.9129 117.548 44.3941C117.777 43.8753 117.892 43.26 117.892 42.5482C117.892 41.8122 117.771 41.1787 117.53 40.6479C117.301 40.1049 116.969 39.6887 116.534 39.3991C116.1 39.0975 115.575 38.9467 114.96 38.9467C114.405 38.9467 113.916 39.0794 113.494 39.3448C113.072 39.6103 112.746 40.0024 112.517 40.5212C112.287 41.0279 112.173 41.6493 112.173 42.3853C112.173 43.5194 112.432 44.4122 112.951 45.0638C113.482 45.7032 114.2 46.0229 115.105 46.0229ZM124.526 47.3803C123.489 47.3803 122.704 47.0183 122.174 46.2944C121.643 45.5705 121.377 44.4907 121.377 43.0549V37.7884H123.042V42.9101C123.042 43.9236 123.199 44.6777 123.513 45.1723C123.826 45.667 124.321 45.9144 124.997 45.9144C125.371 45.9144 125.703 45.8239 125.992 45.6429C126.294 45.4619 126.559 45.2025 126.788 44.8647C127.018 44.5269 127.205 44.1287 127.35 43.6702C127.494 43.1997 127.591 42.6929 127.639 42.15V37.7884H129.286V43.2359V47.145H127.82L127.965 44.1408H127.693C127.537 44.8888 127.313 45.5041 127.024 45.9868C126.746 46.4573 126.396 46.8072 125.974 47.0364C125.552 47.2657 125.069 47.3803 124.526 47.3803ZM131.782 47.145V42.0776V37.7884H133.266L133.121 41.046H133.429C133.537 40.3342 133.706 39.7188 133.936 39.2C134.165 38.6812 134.466 38.277 134.84 37.9875C135.227 37.6979 135.703 37.5531 136.27 37.5531C136.391 37.5531 136.53 37.5652 136.686 37.5893C136.843 37.6014 137.024 37.6436 137.229 37.716L137.139 39.4353C136.958 39.3629 136.777 39.3147 136.596 39.2905C136.415 39.2543 136.24 39.2362 136.071 39.2362C135.601 39.2362 135.19 39.3871 134.84 39.6887C134.503 39.9903 134.219 40.4005 133.99 40.9193C133.761 41.4261 133.574 41.9992 133.429 42.6386V47.145H131.782ZM142.507 47.3803C141.687 47.3803 140.987 47.2476 140.408 46.9821C139.841 46.7167 139.376 46.3608 139.014 45.9144C138.664 45.4679 138.405 44.9552 138.236 44.376C138.079 43.7969 138.001 43.1936 138.001 42.5662C138.001 41.8785 138.091 41.233 138.272 40.6298C138.453 40.0265 138.725 39.4956 139.087 39.0372C139.461 38.5666 139.919 38.2047 140.462 37.9513C141.017 37.6858 141.663 37.5531 142.399 37.5531C143.11 37.5531 143.738 37.6798 144.281 37.9332C144.824 38.1745 145.264 38.5184 145.602 38.9648C145.952 39.4112 146.175 39.9421 146.272 40.5574L144.697 40.9917C144.673 40.6539 144.57 40.3281 144.389 40.0144C144.22 39.7007 143.967 39.4474 143.629 39.2543C143.291 39.0492 142.875 38.9467 142.381 38.9467C141.91 38.9467 141.506 39.0372 141.168 39.2181C140.842 39.3991 140.565 39.6525 140.335 39.9782C140.118 40.304 139.949 40.6841 139.829 41.1184C139.72 41.5528 139.666 42.0233 139.666 42.5301C139.666 43.2298 139.762 43.8391 139.955 44.3579C140.161 44.8767 140.474 45.2809 140.896 45.5705C141.319 45.8601 141.862 46.0049 142.525 46.0049C143.02 46.0049 143.442 45.9204 143.792 45.7515C144.142 45.5705 144.42 45.3232 144.625 45.0095C144.83 44.6837 144.962 44.3036 145.023 43.8693L146.543 44.2132C146.459 44.732 146.302 45.1904 146.072 45.5886C145.843 45.9868 145.554 46.3185 145.204 46.584C144.854 46.8374 144.45 47.0304 143.991 47.1631C143.545 47.3079 143.05 47.3803 142.507 47.3803ZM152.078 47.3803C151.342 47.3803 150.69 47.2717 150.123 47.0545C149.568 46.8253 149.098 46.4995 148.712 46.0772C148.326 45.655 148.036 45.1542 147.843 44.5751C147.65 43.996 147.553 43.3445 147.553 42.6205C147.553 41.8846 147.65 41.2089 147.843 40.5936C148.036 39.9782 148.32 39.4413 148.694 38.9829C149.068 38.5244 149.526 38.1745 150.069 37.9332C150.612 37.6798 151.233 37.5531 151.933 37.5531C152.548 37.5531 153.109 37.6557 153.616 37.8608C154.123 38.0659 154.551 38.3856 154.901 38.82C155.263 39.2423 155.535 39.7792 155.716 40.4307C155.897 41.0702 155.969 41.8242 155.933 42.6929L148.585 42.7472V41.6252L154.937 41.5709L154.376 42.331C154.437 41.5709 154.364 40.9435 154.159 40.4488C153.954 39.9541 153.658 39.5801 153.272 39.3267C152.898 39.0734 152.452 38.9467 151.933 38.9467C151.378 38.9467 150.889 39.0915 150.467 39.381C150.045 39.6706 149.719 40.0868 149.49 40.6298C149.273 41.1727 149.164 41.8303 149.164 42.6024C149.164 43.7125 149.411 44.5631 149.906 45.1542C150.401 45.7334 151.137 46.0229 152.114 46.0229C152.488 46.0229 152.814 45.9807 153.091 45.8963C153.381 45.7997 153.622 45.6731 153.815 45.5162C154.02 45.3473 154.183 45.1542 154.304 44.9371C154.437 44.7199 154.539 44.4846 154.612 44.2313L156.059 44.5751C155.951 45.0095 155.782 45.4016 155.553 45.7515C155.336 46.0893 155.058 46.3789 154.72 46.6202C154.394 46.8615 154.014 47.0485 153.58 47.1812C153.146 47.3139 152.645 47.3803 152.078 47.3803ZM161.242 47.145L165.441 35.2004H167.866L172.065 47.145H170.273L166.762 36.5939H166.545L163.034 47.145H161.242ZM163.233 44.4665V43.1997H170.273V44.4665H163.233ZM177.119 47.3803C176.467 47.3803 175.888 47.3079 175.381 47.1631C174.875 47.0304 174.452 46.8374 174.114 46.584C173.777 46.3185 173.517 46.0049 173.336 45.6429C173.155 45.2809 173.059 44.8828 173.047 44.4484L174.44 44.0865C174.416 44.4846 174.513 44.8345 174.73 45.1362C174.959 45.4257 175.279 45.6489 175.689 45.8058C176.111 45.9626 176.618 46.041 177.209 46.041C177.921 46.041 178.47 45.9204 178.856 45.6791C179.254 45.4378 179.453 45.106 179.453 44.6837C179.453 44.3459 179.345 44.0865 179.128 43.9055C178.91 43.7125 178.609 43.5616 178.223 43.453C177.849 43.3324 177.402 43.2238 176.883 43.1273C176.449 43.0308 176.015 42.9222 175.58 42.8015C175.146 42.6809 174.748 42.524 174.386 42.331C174.036 42.1259 173.753 41.8604 173.535 41.5347C173.318 41.2089 173.21 40.8047 173.21 40.3221C173.21 39.755 173.36 39.2664 173.662 38.8562C173.964 38.446 174.392 38.1262 174.947 37.897C175.502 37.6677 176.166 37.5531 176.938 37.5531C177.71 37.5531 178.368 37.6738 178.91 37.9151C179.453 38.1443 179.882 38.4701 180.195 38.8924C180.509 39.3147 180.684 39.8093 180.72 40.3764L179.29 40.7384C179.278 40.3402 179.17 40.0024 178.965 39.7249C178.772 39.4474 178.494 39.2423 178.132 39.1095C177.77 38.9648 177.348 38.8924 176.865 38.8924C176.226 38.8924 175.719 39.013 175.345 39.2543C174.971 39.4956 174.784 39.8274 174.784 40.2497C174.784 40.5634 174.893 40.8168 175.11 41.0098C175.339 41.2029 175.647 41.3537 176.033 41.4623C176.419 41.5709 176.847 41.6795 177.318 41.788C177.8 41.8846 178.259 41.9931 178.693 42.1138C179.14 42.2345 179.538 42.3913 179.888 42.5843C180.238 42.7774 180.515 43.0368 180.72 43.3626C180.925 43.6763 181.028 44.0804 181.028 44.5751C181.028 45.1904 180.865 45.7093 180.539 46.1315C180.213 46.5418 179.755 46.8555 179.164 47.0726C178.585 47.2777 177.903 47.3803 177.119 47.3803ZM186.513 47.3803C185.861 47.3803 185.282 47.3079 184.775 47.1631C184.269 47.0304 183.846 46.8374 183.508 46.584C183.171 46.3185 182.911 46.0049 182.73 45.6429C182.549 45.2809 182.453 44.8828 182.441 44.4484L183.834 44.0865C183.81 44.4846 183.907 44.8345 184.124 45.1362C184.353 45.4257 184.673 45.6489 185.083 45.8058C185.505 45.9626 186.012 46.041 186.603 46.041C187.315 46.041 187.864 45.9204 188.25 45.6791C188.648 45.4378 188.847 45.106 188.847 44.6837C188.847 44.3459 188.739 44.0865 188.522 43.9055C188.304 43.7125 188.003 43.5616 187.617 43.453C187.243 43.3324 186.796 43.2238 186.277 43.1273C185.843 43.0308 185.409 42.9222 184.974 42.8015C184.54 42.6809 184.142 42.524 183.78 42.331C183.43 42.1259 183.146 41.8604 182.929 41.5347C182.712 41.2089 182.604 40.8047 182.604 40.3221C182.604 39.755 182.754 39.2664 183.056 38.8562C183.358 38.446 183.786 38.1262 184.341 37.897C184.896 37.6677 185.56 37.5531 186.332 37.5531C187.104 37.5531 187.761 37.6738 188.304 37.9151C188.847 38.1443 189.276 38.4701 189.589 38.8924C189.903 39.3147 190.078 39.8093 190.114 40.3764L188.684 40.7384C188.672 40.3402 188.564 40.0024 188.359 39.7249C188.166 39.4474 187.888 39.2423 187.526 39.1095C187.164 38.9648 186.742 38.8924 186.259 38.8924C185.62 38.8924 185.113 39.013 184.739 39.2543C184.365 39.4956 184.178 39.8274 184.178 40.2497C184.178 40.5634 184.287 40.8168 184.504 41.0098C184.733 41.2029 185.041 41.3537 185.427 41.4623C185.813 41.5709 186.241 41.6795 186.712 41.788C187.194 41.8846 187.653 41.9931 188.087 42.1138C188.534 42.2345 188.932 42.3913 189.282 42.5843C189.632 42.7774 189.909 43.0368 190.114 43.3626C190.319 43.6763 190.422 44.0804 190.422 44.5751C190.422 45.1904 190.259 45.7093 189.933 46.1315C189.607 46.5418 189.149 46.8555 188.558 47.0726C187.979 47.2777 187.297 47.3803 186.513 47.3803ZM192.309 47.145V37.7884H193.955V47.145H192.309ZM193.141 36.1596C192.755 36.1596 192.465 36.0812 192.272 35.9243C192.079 35.7675 191.983 35.5322 191.983 35.2185C191.983 34.9048 192.079 34.6695 192.272 34.5127C192.465 34.3558 192.749 34.2774 193.123 34.2774C193.509 34.2774 193.799 34.3558 193.992 34.5127C194.185 34.6695 194.281 34.9048 194.281 35.2185C194.281 35.5201 194.185 35.7554 193.992 35.9243C193.799 36.0812 193.515 36.1596 193.141 36.1596ZM199.928 47.3803C199.276 47.3803 198.697 47.3079 198.19 47.1631C197.684 47.0304 197.261 46.8374 196.924 46.584C196.586 46.3185 196.326 46.0049 196.145 45.6429C195.964 45.2809 195.868 44.8828 195.856 44.4484L197.249 44.0865C197.225 44.4846 197.322 44.8345 197.539 45.1362C197.768 45.4257 198.088 45.6489 198.498 45.8058C198.92 45.9626 199.427 46.041 200.018 46.041C200.73 46.041 201.279 45.9204 201.665 45.6791C202.063 45.4378 202.262 45.106 202.262 44.6837C202.262 44.3459 202.154 44.0865 201.937 43.9055C201.719 43.7125 201.418 43.5616 201.032 43.453C200.658 43.3324 200.211 43.2238 199.692 43.1273C199.258 43.0308 198.824 42.9222 198.389 42.8015C197.955 42.6809 197.557 42.524 197.195 42.331C196.845 42.1259 196.562 41.8604 196.344 41.5347C196.127 41.2089 196.019 40.8047 196.019 40.3221C196.019 39.755 196.169 39.2664 196.471 38.8562C196.773 38.446 197.201 38.1262 197.756 37.897C198.311 37.6677 198.975 37.5531 199.747 37.5531C200.519 37.5531 201.177 37.6738 201.719 37.9151C202.262 38.1443 202.691 38.4701 203.004 38.8924C203.318 39.3147 203.493 39.8093 203.529 40.3764L202.1 40.7384C202.087 40.3402 201.979 40.0024 201.774 39.7249C201.581 39.4474 201.303 39.2423 200.941 39.1095C200.579 38.9648 200.157 38.8924 199.674 38.8924C199.035 38.8924 198.528 39.013 198.154 39.2543C197.78 39.4956 197.593 39.8274 197.593 40.2497C197.593 40.5634 197.702 40.8168 197.919 41.0098C198.148 41.2029 198.456 41.3537 198.842 41.4623C199.228 41.5709 199.656 41.6795 200.127 41.788C200.609 41.8846 201.068 41.9931 201.502 42.1138C201.949 42.2345 202.347 42.3913 202.697 42.5843C203.047 42.7774 203.324 43.0368 203.529 43.3626C203.734 43.6763 203.837 44.0804 203.837 44.5751C203.837 45.1904 203.674 45.7093 203.348 46.1315C203.022 46.5418 202.564 46.8555 201.973 47.0726C201.394 47.2777 200.712 47.3803 199.928 47.3803ZM208.602 47.326C207.733 47.326 207.087 47.0907 206.665 46.6202C206.243 46.1496 206.032 45.4318 206.032 44.4665V39.1638H204.62L204.638 37.7884H205.525C205.827 37.7884 206.044 37.7341 206.176 37.6255C206.321 37.5169 206.406 37.336 206.43 37.0826L206.611 35.6709H207.624V37.7884H210.321V39.1819H207.624V44.4303C207.624 44.9129 207.733 45.2628 207.95 45.48C208.179 45.6851 208.505 45.7877 208.927 45.7877C209.157 45.7877 209.392 45.7575 209.633 45.6972C209.887 45.6369 210.134 45.5162 210.375 45.3352V46.9821C210.025 47.1149 209.7 47.2053 209.398 47.2536C209.108 47.3019 208.843 47.326 208.602 47.326ZM214.196 47.3803C213.689 47.3803 213.23 47.2838 212.82 47.0907C212.41 46.8856 212.084 46.59 211.843 46.2039C211.602 45.8058 211.481 45.3051 211.481 44.7018C211.481 44.2554 211.559 43.8633 211.716 43.5254C211.885 43.1876 212.138 42.898 212.476 42.6567C212.826 42.4154 213.273 42.2164 213.815 42.0595C214.358 41.9027 215.022 41.7699 215.806 41.6614C216.253 41.601 216.615 41.5407 216.892 41.4804C217.182 41.42 217.393 41.3235 217.526 41.1908C217.658 41.046 217.725 40.8349 217.725 40.5574C217.725 40.0989 217.568 39.7128 217.254 39.3991C216.94 39.0854 216.446 38.9286 215.77 38.9286C215.42 38.9286 215.064 38.9889 214.702 39.1095C214.34 39.2302 214.021 39.4353 213.743 39.7249C213.478 40.0024 213.309 40.3945 213.236 40.9012L211.716 40.3945C211.813 39.9602 211.97 39.568 212.187 39.2181C212.416 38.8682 212.705 38.5726 213.055 38.3313C213.405 38.078 213.809 37.8849 214.268 37.7522C214.738 37.6195 215.257 37.5531 215.824 37.5531C216.609 37.5531 217.26 37.6858 217.779 37.9513C218.31 38.2167 218.702 38.6269 218.955 39.1819C219.221 39.7249 219.353 40.4247 219.353 41.2813V43.3626C219.353 43.7366 219.359 44.1468 219.372 44.5932C219.396 45.0276 219.426 45.4679 219.462 45.9144C219.498 46.3487 219.534 46.7589 219.571 47.145H218.05C218.014 46.7589 217.978 46.3728 217.942 45.9868C217.918 45.6007 217.9 45.2146 217.888 44.8285H217.652C217.471 45.2749 217.23 45.6912 216.928 46.0772C216.627 46.4633 216.247 46.777 215.788 47.0183C215.342 47.2596 214.811 47.3803 214.196 47.3803ZM214.684 46.041C214.95 46.041 215.215 45.9988 215.481 45.9144C215.758 45.8299 216.029 45.6912 216.295 45.4981C216.572 45.3051 216.832 45.0577 217.073 44.7561C217.326 44.4545 217.55 44.0925 217.743 43.6702V41.8604L218.213 41.9509C218.02 42.144 217.761 42.2887 217.435 42.3853C217.121 42.4818 216.771 42.5602 216.385 42.6205C215.999 42.6809 215.613 42.7472 215.227 42.8196C214.841 42.8799 214.485 42.9765 214.159 43.1092C213.846 43.2298 213.592 43.4048 213.399 43.634C213.206 43.8633 213.11 44.177 213.11 44.5751C213.11 45.0577 213.254 45.4257 213.544 45.6791C213.834 45.9204 214.214 46.041 214.684 46.041ZM221.754 47.145V41.3356V37.7884H223.238L223.075 40.7565H223.383C223.552 40.0205 223.775 39.4172 224.052 38.9467C224.342 38.4761 224.704 38.1262 225.138 37.897C225.573 37.6677 226.079 37.5531 226.659 37.5531C227.696 37.5531 228.48 37.9272 229.011 38.6752C229.554 39.4112 229.826 40.5152 229.826 41.9871V47.145H228.161V42.1319C228.161 41.0702 227.992 40.2859 227.654 39.7792C227.328 39.2724 226.846 39.0191 226.206 39.0191C225.627 39.0191 225.132 39.2 224.722 39.562C224.324 39.924 224.01 40.4005 223.781 40.9917C223.552 41.5829 223.425 42.2224 223.401 42.9101V47.145H221.754ZM236.191 47.3803C235.37 47.3803 234.671 47.2476 234.091 46.9821C233.524 46.7167 233.06 46.3608 232.698 45.9144C232.348 45.4679 232.089 44.9552 231.92 44.376C231.763 43.7969 231.684 43.1936 231.684 42.5662C231.684 41.8785 231.775 41.233 231.956 40.6298C232.137 40.0265 232.408 39.4956 232.77 39.0372C233.144 38.5666 233.603 38.2047 234.146 37.9513C234.701 37.6858 235.346 37.5531 236.082 37.5531C236.794 37.5531 237.421 37.6798 237.964 37.9332C238.507 38.1745 238.948 38.5184 239.285 38.9648C239.635 39.4112 239.859 39.9421 239.955 40.5574L238.381 40.9917C238.356 40.6539 238.254 40.3281 238.073 40.0144C237.904 39.7007 237.651 39.4474 237.313 39.2543C236.975 39.0492 236.559 38.9467 236.064 38.9467C235.593 38.9467 235.189 39.0372 234.851 39.2181C234.526 39.3991 234.248 39.6525 234.019 39.9782C233.802 40.304 233.633 40.6841 233.512 41.1184C233.404 41.5528 233.349 42.0233 233.349 42.5301C233.349 43.2298 233.446 43.8391 233.639 44.3579C233.844 44.8767 234.158 45.2809 234.58 45.5705C235.002 45.8601 235.545 46.0049 236.209 46.0049C236.703 46.0049 237.126 45.9204 237.476 45.7515C237.826 45.5705 238.103 45.3232 238.308 45.0095C238.513 44.6837 238.646 44.3036 238.706 43.8693L240.227 44.2132C240.142 44.732 239.985 45.1904 239.756 45.5886C239.527 45.9868 239.237 46.3185 238.887 46.584C238.537 46.8374 238.133 47.0304 237.675 47.1631C237.228 47.3079 236.734 47.3803 236.191 47.3803ZM245.761 47.3803C245.025 47.3803 244.374 47.2717 243.807 47.0545C243.252 46.8253 242.781 46.4995 242.395 46.0772C242.009 45.655 241.72 45.1542 241.527 44.5751C241.333 43.996 241.237 43.3445 241.237 42.6205C241.237 41.8846 241.333 41.2089 241.527 40.5936C241.72 39.9782 242.003 39.4413 242.377 38.9829C242.751 38.5244 243.21 38.1745 243.753 37.9332C244.295 37.6798 244.917 37.5531 245.617 37.5531C246.232 37.5531 246.793 37.6557 247.3 37.8608C247.806 38.0659 248.235 38.3856 248.585 38.82C248.947 39.2423 249.218 39.7792 249.399 40.4307C249.58 41.0702 249.652 41.8242 249.616 42.6929L242.269 42.7472V41.6252L248.621 41.5709L248.06 42.331C248.12 41.5709 248.048 40.9435 247.843 40.4488C247.638 39.9541 247.342 39.5801 246.956 39.3267C246.582 39.0734 246.135 38.9467 245.617 38.9467C245.062 38.9467 244.573 39.0915 244.151 39.381C243.728 39.6706 243.403 40.0868 243.173 40.6298C242.956 41.1727 242.848 41.8303 242.848 42.6024C242.848 43.7125 243.095 44.5631 243.59 45.1542C244.084 45.7334 244.82 46.0229 245.798 46.0229C246.172 46.0229 246.497 45.9807 246.775 45.8963C247.064 45.7997 247.306 45.6731 247.499 45.5162C247.704 45.3473 247.867 45.1542 247.987 44.9371C248.12 44.7199 248.223 44.4846 248.295 44.2313L249.743 44.5751C249.634 45.0095 249.465 45.4016 249.236 45.7515C249.019 46.0893 248.742 46.3789 248.404 46.6202C248.078 46.8615 247.698 47.0485 247.264 47.1812C246.829 47.3139 246.328 47.3803 245.761 47.3803Z" fill="#2979FF"/>
</g>
<defs>
<clipPath id="clip0_42_249">
<rect width="50.2594" height="54.2013" fill="white"/>
</clipPath>
<clipPath id="clip1_42_249">
<rect width="48.0592" height="19.6228" fill="white" transform="translate(0.983215 34.5703)"/>
</clipPath>
<clipPath id="clip2_42_249">
<rect width="192.036" height="41.1992" fill="white" transform="translate(58.7716 6.50098)"/>
</clipPath>
</defs>
</svg>
