<svg width="136" height="136" viewBox="0 0 136 136" fill="none" xmlns="http://www.w3.org/2000/svg">
<rect width="136" height="136" fill="white"/>
<path d="M96.5675 79.9851C92.4374 79.9523 88.1084 80.9797 84.0031 83.1707L83.1457 81.1482H68.9894V69.4783H78.1964L68.1593 45.8093H81.7111L96.5675 79.9851ZM57.8507 69.4783H66.9894V81.1482H52.7677L52.2121 82.4216C47.91 80.4446 43.4239 79.6998 39.2218 80.0779L54.3742 45.8093H68.1593L57.8507 69.4783ZM80.9865 44.1423H55.1115L68.1593 14.6335L80.9865 44.1423Z" fill="#2979FF"/>
<g clip-path="url(#clip0_684_37)">
<path d="M19.6409 102.264C19.6409 80.8747 50.0964 75.5273 65.0745 96.0813L60.4146 99.9248C41.276 79.872 26.1314 91.9037 26.1314 102.264C26.1314 113.093 36.1723 116.858 41.276 116.468C58.2511 116.468 74.0613 83.2141 95.6964 83.2141C111.407 83.2141 115.778 96.3599 116 102.933C116 114.296 105.282 122.818 95.6964 122.484C86.1104 122.15 75.2818 114.24 71.0657 110.118L75.3927 105.774C78.5548 108.781 86.3767 116.468 95.6964 116.468C114.669 116.468 114.669 89.0629 95.6964 89.0629C76.7241 89.0629 62.5781 122.484 41.276 122.484C23.6351 122.484 19.6409 108.392 19.6409 102.264Z" fill="#0047BE"/>
<path d="M41.276 122.486C23.6351 122.486 19.6409 108.393 19.6409 102.266C22.475 115.493 35.3118 116.47 41.276 116.47C58.2511 116.47 74.0613 83.2157 95.6964 83.2157C111.407 83.2157 115.778 96.3614 116 102.934C112.666 92.8207 104.997 89.0645 95.6964 89.0645C76.7241 89.0645 62.5781 122.486 41.276 122.486Z" fill="#2979FF"/>
<path d="M19.6409 102.097C19.6409 80.7073 50.0964 75.3598 65.0745 95.9139L60.4146 99.7574C42.4804 79.1481 22.2384 92.3183 19.6409 102.097Z" fill="#5F9BFF"/>
<path d="M95.6964 116.301C103.33 116.301 112.832 113.824 116 102.765C116 114.129 105.282 122.651 95.6964 122.317C86.1104 121.983 75.2818 114.073 71.0657 109.951L75.3927 105.606C78.5548 108.614 86.3767 116.301 95.6964 116.301Z" fill="#5F9BFF"/>
</g>
<defs>
<clipPath id="clip0_684_37">
<rect width="96.3591" height="39.3438" fill="white" transform="translate(19.6409 83.1497)"/>
</clipPath>
</defs>
</svg>
