<?xml version="1.0" encoding="UTF-8"?><svg id="uuid-ae99624e-97a3-4322-8752-01459f14c182" xmlns="http://www.w3.org/2000/svg" xmlns:xlink="http://www.w3.org/1999/xlink" viewBox="0 0 36 38"><defs><radialGradient id="uuid-d93f2eed-04bd-4d68-805a-6e37f1d7487b" cx="-565.04" cy="414.96" fx="-565.04" fy="414.96" r="1" gradientTransform="translate(7651.62 13823.75) scale(13.48 -33.27)" gradientUnits="userSpaceOnUse"><stop offset="0" stop-color="#a98aff"/><stop offset=".14" stop-color="#8c75ff"/><stop offset=".56" stop-color="#5f50e2"/><stop offset=".9" stop-color="#3c2cb8"/></radialGradient><radialGradient id="uuid-30dbadc8-4107-430f-8897-1d60d1f1091b" cx="-589.88" cy="440.74" fx="-589.88" fy="440.74" r="1" gradientTransform="translate(-6356.17 23377.06) rotate(68.15) scale(32.75 -33.12)" gradientUnits="userSpaceOnUse"><stop offset="0" stop-color="#85c2ff"/><stop offset=".69" stop-color="#7588ff"/><stop offset="1" stop-color="#6459fe"/></radialGradient><linearGradient id="uuid-bdf8d3d8-f584-4b89-af5e-3c12aaa80f4a" x1="17" y1="-56" x2="17" y2="-80" gradientTransform="translate(0 -42) scale(1 -1)" gradientUnits="userSpaceOnUse"><stop offset=".8" stop-color="#6864f6" stop-opacity="0"/><stop offset="1" stop-color="#5149de"/></linearGradient><radialGradient id="uuid-c66be6dd-77dd-4f35-9358-7603e07b7dac" cx="-600.17" cy="477.06" fx="-600.17" fy="477.06" r="1" gradientTransform="translate(-11301.88 7690.76) rotate(113.33) scale(19.22 -15.43)" gradientUnits="userSpaceOnUse"><stop offset="0" stop-color="#bd96ff"/><stop offset=".69" stop-color="#bd96ff" stop-opacity="0"/></radialGradient><radialGradient id="uuid-73347e4b-a853-4c86-81b3-81929ef8f679" cx="-656.7" cy="380.99" fx="-656.7" fy="380.99" r="1" gradientTransform="translate(4837.67 -6559.43) rotate(-90) scale(10 -12.62)" gradientUnits="userSpaceOnUse"><stop offset=".27" stop-color="#6868f7"/><stop offset="1" stop-color="#3923b1"/></radialGradient><radialGradient id="uuid-9b4168c5-6fae-4590-9c9e-974f26099616" cx="-503.04" cy="432.14" fx="-503.04" fy="432.14" r="1" gradientTransform="translate(-97.64 5738.9) rotate(40.05) scale(7.15 -10.34)" gradientUnits="userSpaceOnUse"><stop offset=".27" stop-color="#a1d3ff"/><stop offset=".81" stop-color="#a1d3ff" stop-opacity="0"/></radialGradient><radialGradient id="uuid-680d5512-8815-4e26-b52c-45dc0e8f65a2" cx="-593.28" cy="393" fx="-593.28" fy="393" r="1" gradientTransform="translate(9261.24 2780.96) rotate(-41.66) scale(8.51 -20.88)" gradientUnits="userSpaceOnUse"><stop offset="0" stop-color="#e3acfd"/><stop offset=".82" stop-color="#9fa2ff" stop-opacity="0"/></radialGradient><radialGradient id="uuid-feae7749-fbff-4daf-8677-9983d10c4fd2" cx="-648.92" cy="388.99" fx="-648.92" fy="388.99" r="1" gradientTransform="translate(5905.63 -7782.71) rotate(-90) scale(12 -15.15)" gradientUnits="userSpaceOnUse"><stop offset=".27" stop-color="#8282ff"/><stop offset="1" stop-color="#3923b1"/></radialGradient><radialGradient id="uuid-748334d8-8fba-4cc3-9105-1da60103fce8" cx="-520.87" cy="431.62" fx="-520.87" fy="431.62" r="1" gradientTransform="translate(-16.76 6975.25) rotate(40.05) scale(8.58 -12.4)" xlink:href="#uuid-9b4168c5-6fae-4590-9c9e-974f26099616"/><radialGradient id="uuid-e56e7b0b-76c5-4f33-9255-c480474961ea" cx="-596.07" cy="399" fx="-596.07" fy="399" gradientTransform="translate(11213.89 3425.76) rotate(-41.66) scale(10.22 -25.06)" xlink:href="#uuid-680d5512-8815-4e26-b52c-45dc0e8f65a2"/><radialGradient id="uuid-02449ed1-76cc-43ca-9442-39310110f13a" cx="-576.47" cy="433.34" fx="-576.47" fy="433.34" r="1" gradientTransform="translate(2290 16175.99) rotate(45) scale(22.63 -22.63)" gradientUnits="userSpaceOnUse"><stop offset=".05" stop-color="#688eff"/><stop offset=".95" stop-color="#230f94"/></radialGradient><radialGradient id="uuid-6687f01c-6738-4baa-8357-f48b409d7c67" cx="-568.3" cy="475.37" fx="-568.3" fy="475.37" r="1" gradientTransform="translate(-6205.12 6393.6) rotate(90) scale(11.2 -13.07)" gradientUnits="userSpaceOnUse"><stop offset=".57" stop-color="#6965f6" stop-opacity="0"/><stop offset="1" stop-color="#8f8fff"/></radialGradient></defs><path d="M18,16h12c3.31,0,6,2.69,6,6v10c0,3.31-2.69,6-6,6s-6-2.69-6-6v-10c0-3.31-2.69-6-6-6Z" style="fill:url(#uuid-d93f2eed-04bd-4d68-805a-6e37f1d7487b);"/><path d="M4,20c0-3.31,2.69-6,6-6h8c3.31,0,6,2.69,6,6v12c0,3.31,2.69,6,6,6H14c-5.52,0-10-4.48-10-10v-8Z" style="fill:url(#uuid-30dbadc8-4107-430f-8897-1d60d1f1091b);"/><path d="M4,20c0-3.31,2.69-6,6-6h8c3.31,0,6,2.69,6,6v12c0,3.31,2.69,6,6,6H14c-5.52,0-10-4.48-10-10v-8Z" style="fill:url(#uuid-bdf8d3d8-f584-4b89-af5e-3c12aaa80f4a); fill-opacity:.7;"/><path d="M4,20c0-3.31,2.69-6,6-6h8c3.31,0,6,2.69,6,6v12c0,3.31,2.69,6,6,6H14c-5.52,0-10-4.48-10-10v-8Z" style="fill:url(#uuid-c66be6dd-77dd-4f35-9358-7603e07b7dac); fill-opacity:.7;"/><path d="M29,14c2.76,0,5-2.24,5-5s-2.24-5-5-5-5,2.24-5,5,2.24,5,5,5Z" style="fill:url(#uuid-73347e4b-a853-4c86-81b3-81929ef8f679);"/><path d="M29,14c2.76,0,5-2.24,5-5s-2.24-5-5-5-5,2.24-5,5,2.24,5,5,5Z" style="fill:url(#uuid-9b4168c5-6fae-4590-9c9e-974f26099616); fill-opacity:.46;"/><path d="M29,14c2.76,0,5-2.24,5-5s-2.24-5-5-5-5,2.24-5,5,2.24,5,5,5Z" style="fill:url(#uuid-680d5512-8815-4e26-b52c-45dc0e8f65a2); fill-opacity:.4;"/><path d="M14,12c3.31,0,6-2.69,6-6S17.31,0,14,0s-6,2.69-6,6,2.69,6,6,6Z" style="fill:url(#uuid-feae7749-fbff-4daf-8677-9983d10c4fd2);"/><path d="M14,12c3.31,0,6-2.69,6-6S17.31,0,14,0s-6,2.69-6,6,2.69,6,6,6Z" style="fill:url(#uuid-748334d8-8fba-4cc3-9105-1da60103fce8); fill-opacity:.6;"/><path d="M14,12c3.31,0,6-2.69,6-6S17.31,0,14,0s-6,2.69-6,6,2.69,6,6,6Z" style="fill:url(#uuid-e56e7b0b-76c5-4f33-9255-c480474961ea); fill-opacity:.5;"/><rect y="19" width="16" height="16" rx="3.25" ry="3.25" style="fill:url(#uuid-02449ed1-76cc-43ca-9442-39310110f13a);"/><rect y="19" width="16" height="16" rx="3.25" ry="3.25" style="fill:url(#uuid-6687f01c-6738-4baa-8357-f48b409d7c67); fill-opacity:.7;"/><path d="M11.48,24.11h-2.45v7.47h-2.06v-7.47h-2.45v-1.68h6.96v1.68Z" style="fill:#fff;"/></svg>